<svg id="visual" viewBox="0 0 900 600" width="900" height="600" xmlns="http://www.w3.org/2000/svg" xmlns:xlink="http://www.w3.org/1999/xlink" version="1.1"><rect x="0" y="0" width="900" height="600" fill="#ef5f67"></rect><defs><linearGradient id="grad1_0" x1="33.3%" y1="100%" x2="100%" y2="0%"><stop offset="20%" stop-color="#ef5f67" stop-opacity="1"></stop><stop offset="80%" stop-color="#ef5f67" stop-opacity="1"></stop></linearGradient></defs><defs><linearGradient id="grad2_0" x1="0%" y1="100%" x2="66.7%" y2="0%"><stop offset="20%" stop-color="#ef5f67" stop-opacity="1"></stop><stop offset="80%" stop-color="#ef5f67" stop-opacity="1"></stop></linearGradient></defs><g transform="translate(900, 600)"><path d="M-486.7 0C-488 -72.2 -489.3 -144.4 -449.7 -186.3C-410.1 -228.1 -329.8 -239.5 -283.5 -283.5C-237.3 -327.6 -225.3 -404.2 -183.7 -443.5C-142.1 -482.8 -71.1 -484.8 0 -486.7L0 0Z" fill="#363e4d"></path></g><g transform="translate(0, 0)"><path d="M486.7 0C480.5 70 474.3 140 433.3 179.5C392.3 218.9 316.5 227.8 275.1 275.1C233.6 322.3 226.4 408 186.3 449.7C146.1 491.4 73.1 489.1 0 486.7L0 0Z" fill="#363e4d"></path></g></svg>