<svg id="visual" viewBox="0 0 900 600" width="900" height="600" xmlns="http://www.w3.org/2000/svg" xmlns:xlink="http://www.w3.org/1999/xlink" version="1.1"><rect width="900" height="600" fill="#363e4d"></rect><g><g transform="translate(836 482)"><path d="M42.4 -41.2C55.4 -29.4 66.7 -14.7 66.9 0.2C67.1 15.1 56.2 30.2 43.2 41.1C30.2 52.1 15.1 58.8 0.2 58.6C-14.7 58.4 -29.4 51.2 -41.3 40.3C-53.2 29.4 -62.3 14.7 -62.5 -0.2C-62.7 -15.1 -54 -30.2 -42.1 -42.1C-30.2 -53.9 -15.1 -62.4 -0.2 -62.2C14.7 -62 29.4 -53 42.4 -41.2Z" fill="#ef5f67"></path></g><g transform="translate(398 66)"><path d="M33.9 -34.9C42.2 -25.6 45.9 -12.8 45.5 -0.3C45.2 12.2 40.9 24.4 32.6 33.7C24.4 43 12.2 49.5 0.4 49.1C-11.4 48.7 -22.7 41.4 -32.3 32C-41.9 22.7 -49.8 11.4 -50.5 -0.7C-51.2 -12.8 -44.8 -25.5 -35.1 -34.8C-25.5 -44 -12.8 -49.8 0 -49.8C12.8 -49.8 25.6 -44.1 33.9 -34.9Z" fill="#ef5f67"></path></g><g transform="translate(61 493)"><path d="M35.1 -36.2C45 -25.2 52.2 -12.6 53.4 1.2C54.6 15 49.9 30.1 40 40.6C30.1 51.2 15 57.2 0.1 57C-14.8 56.9 -29.5 50.6 -38 40.1C-46.4 29.5 -48.4 14.8 -48.3 0.1C-48.1 -14.5 -45.8 -28.9 -37.4 -40C-28.9 -51 -14.5 -58.5 -0.9 -57.6C12.6 -56.7 25.2 -47.2 35.1 -36.2Z" fill="#ef5f67"></path></g><g transform="translate(897 59)"><path d="M24.4 -22.6C31.9 -16.9 38.5 -8.5 38.3 -0.1C38.2 8.2 31.4 16.4 23.9 22.5C16.4 28.5 8.2 32.4 -0.6 33C-9.5 33.7 -18.9 31 -25.7 25C-32.4 18.9 -36.4 9.5 -36.6 -0.3C-36.9 -10 -33.5 -20 -26.7 -25.7C-20 -31.4 -10 -32.8 -0.8 -32C8.5 -31.2 16.9 -28.3 24.4 -22.6Z" fill="#ef5f67"></path></g><g transform="translate(667 257)"><path d="M31 -31.9C38.4 -23.5 41.5 -11.8 41.1 -0.5C40.6 10.9 36.6 21.7 29.2 28.8C21.7 36 10.9 39.3 0.4 39C-10.1 38.6 -20.3 34.5 -29.2 27.4C-38.1 20.3 -45.9 10.1 -47.1 -1.3C-48.4 -12.6 -43.2 -25.3 -34.2 -33.6C-25.3 -42 -12.6 -46 -0.4 -45.6C11.8 -45.1 23.5 -40.2 31 -31.9Z" fill="#ef5f67"></path></g><g transform="translate(577 528)"><path d="M44.3 -44.8C56.7 -32 65.4 -16 64.5 -0.9C63.6 14.1 53 28.3 40.6 38.4C28.3 48.5 14.1 54.7 -1.7 56.4C-17.5 58.1 -35.1 55.3 -47.8 45.2C-60.4 35.1 -68.3 17.5 -68.4 -0.2C-68.6 -17.8 -61.1 -35.7 -48.4 -48.5C-35.7 -61.3 -17.8 -69.2 -0.9 -68.2C16 -67.3 32 -57.6 44.3 -44.8Z" fill="#ef5f67"></path></g><g transform="translate(150 257)"><path d="M36.3 -36.2C45.3 -27.3 49.8 -13.6 49 -0.8C48.3 12.1 42.3 24.2 33.3 34.1C24.2 44 12.1 51.7 -0.1 51.8C-12.4 51.9 -24.7 44.5 -35.1 34.6C-45.5 24.7 -53.9 12.4 -54.7 -0.8C-55.5 -14 -48.8 -28 -38.4 -36.9C-28 -45.8 -14 -49.6 -0.2 -49.5C13.6 -49.3 27.3 -45.1 36.3 -36.2Z" fill="#ef5f67"></path></g></g></svg>