<svg id="visual" viewBox="0 0 900 600" width="900" height="600" xmlns="http://www.w3.org/2000/svg" xmlnsXlink="http://www.w3.org/1999/xlink" version="1.1"><rect x="0" y="0" width="900" height="600" fill="#001220"></rect><path d="M0 361L21.5 374.7C43 388.3 86 415.7 128.8 423.5C171.7 431.3 214.3 419.7 257.2 414.2C300 408.7 343 409.3 385.8 401.8C428.7 394.3 471.3 378.7 514.2 374.2C557 369.7 600 376.3 642.8 374.3C685.7 372.3 728.3 361.7 771.2 356.2C814 350.7 857 350.3 878.5 350.2L900 350L900 601L878.5 601C857 601 814 601 771.2 601C728.3 601 685.7 601 642.8 601C600 601 557 601 514.2 601C471.3 601 428.7 601 385.8 601C343 601 300 601 257.2 601C214.3 601 171.7 601 128.8 601C86 601 43 601 21.5 601L0 601Z" fill="#fa7268"></path><path d="M0 455L21.5 451C43 447 86 439 128.8 441.8C171.7 444.7 214.3 458.3 257.2 455.3C300 452.3 343 432.7 385.8 421.8C428.7 411 471.3 409 514.2 406.3C557 403.7 600 400.3 642.8 411C685.7 421.7 728.3 446.3 771.2 459.8C814 473.3 857 475.7 878.5 476.8L900 478L900 601L878.5 601C857 601 814 601 771.2 601C728.3 601 685.7 601 642.8 601C600 601 557 601 514.2 601C471.3 601 428.7 601 385.8 601C343 601 300 601 257.2 601C214.3 601 171.7 601 128.8 601C86 601 43 601 21.5 601L0 601Z" fill="#ef5f67"></path><path d="M0 483L21.5 475.8C43 468.7 86 454.3 128.8 455C171.7 455.7 214.3 471.3 257.2 477.8C300 484.3 343 481.7 385.8 485.3C428.7 489 471.3 499 514.2 493.5C557 488 600 467 642.8 458.3C685.7 449.7 728.3 453.3 771.2 463.8C814 474.3 857 491.7 878.5 500.3L900 509L900 601L878.5 601C857 601 814 601 771.2 601C728.3 601 685.7 601 642.8 601C600 601 557 601 514.2 601C471.3 601 428.7 601 385.8 601C343 601 300 601 257.2 601C214.3 601 171.7 601 128.8 601C86 601 43 601 21.5 601L0 601Z" fill="#e34c67"></path><path d="M0 530L21.5 528.8C43 527.7 86 525.3 128.8 520.7C171.7 516 214.3 509 257.2 504.5C300 500 343 498 385.8 503.5C428.7 509 471.3 522 514.2 523C557 524 600 513 642.8 514.2C685.7 515.3 728.3 528.7 771.2 528.7C814 528.7 857 515.3 878.5 508.7L900 502L900 601L878.5 601C857 601 814 601 771.2 601C728.3 601 685.7 601 642.8 601C600 601 557 601 514.2 601C471.3 601 428.7 601 385.8 601C343 601 300 601 257.2 601C214.3 601 171.7 601 128.8 601C86 601 43 601 21.5 601L0 601Z" fill="#d53867"></path><path d="M0 553L21.5 548.3C43 543.7 86 534.3 128.8 536C171.7 537.7 214.3 550.3 257.2 552.5C300 554.7 343 546.3 385.8 548.2C428.7 550 471.3 562 514.2 567.8C557 573.7 600 573.3 642.8 567.2C685.7 561 728.3 549 771.2 541.8C814 534.7 857 532.3 878.5 531.2L900 530L900 601L878.5 601C857 601 814 601 771.2 601C728.3 601 685.7 601 642.8 601C600 601 557 601 514.2 601C471.3 601 428.7 601 385.8 601C343 601 300 601 257.2 601C214.3 601 171.7 601 128.8 601C86 601 43 601 21.5 601L0 601Z" fill="#c62368"></path></svg>